<svg id="small" xmlns="http://www.w3.org/2000/svg" viewBox="0 0 504 475.79">
  <defs>
    <style>
      .cls-1 {
        fill: #fff;
      }

      .cls-2 {
        fill: #383838;
      }

      .cls-3 {
        fill: #231f20;
      }

      .cls-4 {
        fill: #8d8b87;
      }
    </style>
  </defs>
  <g id="boogey_2" data-name="boogey 2">
    <ellipse class="cls-4" cx="381.51" cy="78.5" rx="80.2" ry="68.67" transform="translate(.51 159.44) rotate(-23.62)"/>
    <path d="m386.75,96.47c11.27-4.01,13.7-6.67,26.74-7.16.99-.04,4.53-.36,7.09.3.54.14,4.1,1.11,6.24,4.16,3.54,5.05,2.33,13.15-2.02,16.06-2.94,1.96-6.41,1.94-12.02,2.76-10.22,1.49-17.11,8.06-22.62,14.06-1.36,1.48-1.2,1.43-1.89,2.08-6.55,6.17-16.12,7.07-23.76,3.97-1.86-.76-3.55-1.47-4.91-3.21-3.41-4.36-2.4-10.83-1.94-12.28,2.62-8.43,9.83-12.38,16.25-15.25,4.38-1.96,7.29-3.5,12.85-5.48Z"/>
    <path class="cls-2" d="m390.16,126.65c5.52-6,12.4-12.58,22.62-14.06,5.61-.82,9.08-.79,12.02-2.76,1.93-1.29,3.24-3.61,3.8-6.22-1.13.01-2.27.04-3.4.08-5.91.19-14.53-.09-25.53,6.46-5.87,3.49-8.25,3.67-18.15,13.44-1.94,1.92-7.94,3.29-10.58,3.43-5.72.3-8.96.83-12.01,1.45.21.34.43.68.68,1.01,1.36,1.75,3.05,2.46,4.91,3.21,7.63,3.1,17.2,2.21,23.76-3.97.69-.65.53-.59,1.89-2.08Z"/>
    <circle class="cls-2" cx="336.11" cy="81.33" r="16.33" transform="translate(-5.54 134.81) rotate(-22.5)"/>
    <ellipse class="cls-2" cx="405.84" cy="57.66" rx="16.33" ry="13.64"/>
    <path d="m417.46,54.22c0,6.66-6.24,9.83-10.77,9.83-5.95,0-10.16-4.8-10.16-9.97s4.21-9.21,10.16-9.21,10.77,3.21,10.77,9.35Z"/>
    <ellipse cx="336.11" cy="80.94" rx="10.35" ry="11.13"/>
    <path class="cls-2" d="m376.55,20.63c1-1.5,3.24-6.65,5.57-12.39-6.49.62-13.06,1.97-19.58,4.09.97,2.64,1.63,5.2,2.17,7.16.78,2.84,1.7,5.35.12,11.53-2.27,8.88,8.69,21.54,8.69,21.54,0,0-1.32-5.95-2.03-9.78s-.66-12.48-.13-14.54c5-1.52,4.24-6.2,5.19-7.62Z"/>
  </g>
  <g id="boogey_1" data-name="boogey 1">
    <path class="cls-4" d="m183.13,77.52c0,43.37-35.15,78.52-78.52,78.52S26.09,120.88,26.09,77.52,61.24,0,104.61,0s78.52,34.15,78.52,77.52Z"/>
    <ellipse class="cls-3" cx="85.33" cy="64.48" rx="19.28" ry="16.06" transform="translate(-20.6 79.22) rotate(-45)"/>
    <ellipse class="cls-3" cx="149.21" cy="54.65" rx="14.93" ry="16.06"/>
    <circle class="cls-1" cx="85.7" cy="64.11" r="2.68"/>
    <circle class="cls-1" cx="151.15" cy="54.65" r="2.68"/>
    <path d="m93.56,101.87c.88-.47,1.9-.58,2.83-.95,9.09-3.58,51.56-20.32,54.37-21.33,13.88-5.54,13.42,10.7,14,18.49.25,3.39-3.93,14.43-17.58,23.74-6.08,4.15-23.74,12.17-41.12,9.58-6.45-.96-9.82-4.37-12.78-7.27-5.02-4.9-7.03-10.18-7.34-13.14-.64-6.06,2.32-6.28,7.62-9.13Z"/>
    <path class="cls-1" d="m164.06,101.87c-9.15,7.91-22.33,16.03-35.26,21.62-8.16,3.53-16.21,6.08-23.86,7.73.37.07.74.14,1.13.19,17.37,2.59,35.03-5.44,41.12-9.58,10.28-7.01,15.18-14.99,16.88-19.96Z"/>
    <path class="cls-1" d="m150.76,79.59c-2.81,1.01-45.28,17.74-54.37,21.33-.93.37-1.95.48-2.83.95-4.92,2.65-7.83,3.03-7.7,7.93.01.21.02.4.04.62.04.42.1.91.17,1.44.13.67.32,1.42.61,2.24,11.01-2.79,24.66-7.31,39.25-13.22,14.01-5.67,26.69-11.73,36.69-17.33-1.73-4.17-5.08-6.67-11.86-3.96Z"/>
  </g>
</svg>